# xmcd CD database file
#
# Track frame offsets:
#	150
#	9508
#	19262
#	37093
#	47045
#	63185
#	74256
#	86441
#	95913
#	108258
#	129278
#	148334
#	158732
#
# Disc length: 2428 seconds
#
# Revision: 3
# Processed by: cddbd v1.5.2PL0 Copyright (c) Steve Scherf et al.
# Submitted via: CDex 1.70beta2
#
DISCID=ae097a0d
DTITLE=J繝ｻA繝ｻ繧ｷ繝ｼ繧ｶ繝ｼ - Unknown CD for MusicBrainz and FreeDB
DYEAR=2002
DGENRE=
TTITLE0=縺薙←繧ゅ←縺輔▽
TTITLE1=隰弱′隨帙・縺丞ｽｱ邨ｵ縺瑚ｸ翫ｋ
TTITLE2=蛹夜ｳ･縺ｮ隧ｩ
TTITLE3=蝨ｰ迯・ｷｨ
TTITLE4=豈肴°鬢馴ｬｼ
TTITLE5=譯懈囓鮟呈婿荳郁ｨ・
TTITLE6=諠懈丼魑･
TTITLE7=遏ｭ豁・
TTITLE8=遨ｺ豌怜･ｳ縺ｮ蜚・
TTITLE9=繧ｫ繝ｩ繧ｹ
TTITLE10=蜥瑚ｮ・
TTITLE11=縺帙″繧後＞蠢・ｸｭ
TTITLE12=莠ｺ縲・・縺ｩ縺薙∈
EXTD=YEAR: 2002
EXTT0=
EXTT1=
EXTT2=
EXTT3=
EXTT4=
EXTT5=
EXTT6=
EXTT7=
EXTT8=
EXTT9=
EXTT10=
EXTT11=
EXTT12=
PLAYORDER=
